<svg width="48" height="27" viewBox="0 0 48 27" fill="none" xmlns="http://www.w3.org/2000/svg">
<path d="M13.5 3C19.299 3 24 7.70101 24 13.5C24 19.299 19.299 24 13.5 24C7.70101 24 3 19.299 3 13.5C3 7.70101 7.70101 3 13.5 3Z" stroke="white" stroke-width="6"/>
<path d="M33.687 0.5C40.8667 0.5 46.687 6.3203 46.687 13.5C46.687 20.6797 40.8667 26.5 33.687 26.5C26.5073 26.5 20.687 20.6797 20.687 13.5C20.687 6.3203 26.5073 0.500001 33.687 0.5Z" stroke="white"/>
<path d="M23.2147 6.30371C23.2982 6.30371 23.4838 6.36752 23.7352 6.76465C23.9743 7.14217 24.1986 7.71129 24.3895 8.43164C24.7695 9.86551 24.9862 11.7767 24.9862 13.626C24.9862 15.4809 24.7999 17.3947 24.4501 18.8301C24.2742 19.5516 24.0648 20.12 23.8368 20.4961C23.5979 20.89 23.4205 20.948 23.3417 20.9482C23.2364 20.9482 23.0097 20.8595 22.6962 20.4512C22.4003 20.0659 22.1027 19.4909 21.8368 18.7744C21.3062 17.345 20.9393 15.4481 20.9393 13.626C20.9394 11.7985 21.2759 9.89871 21.7762 8.46875C22.0272 7.75168 22.3113 7.17866 22.5956 6.79492C22.8963 6.38909 23.1134 6.30388 23.2147 6.30371Z" fill="white" stroke="white"/>
</svg>
